Mekorot-Rashi-Regular.ufo
<glyph name="quotesingle" format="2">
	<advance width="250"/>
	<unicode hex="0027"/>
	<outline>
		<contour>
			<point x="115" y="490" type="line"/>
			<point x="135" y="490" type="line"/>
			<point x="170" y="740" type="line"/>
			<point x="80" y="740" type="line"/>
		</contour>
	</outline>
</glyph>
<glyph name="slash" format="2">
	<advance width="250"/>
	<unicode hex="002F"/>
	<outline>
		<contour>
			<point x="0" y="-120" type="line"/>
			<point x="50" y="-120" type="line"/>
			<point x="250" y="750" type="line"/>
			<point x="200" y="750" type="line"/>
		</contour>
	</outline>
</glyph>
<glyph name="four" format="2">
	<advance width="500"/>
	<unicode hex="0034"/>
	<outline>
		<contour>
			<point x="193" y="0" type="line"/>
			<point x="448" y="0" type="line"/>
			<point x="448" y="16" type="line"/>
			<point x="368" y="56" type="line"/>
			<point x="368" y="660" type="line"/>
			<point x="348" y="660" type="line"/>
			<point x="8" y="213" type="line"/>
			<point x="8" y="193" type="line"/>
			<point x="487" y="193" type="line"/>
			<point x="487" y="260" type="line"/>
			<point x="71" y="260" type="line"/>
			<point x="71" y="217" type="line"/>
			<point x="317" y="551" type="line"/>
			<point x="283" y="551" type="line"/>
			<point x="283" y="56" type="line"/>
			<point x="193" y="16" type="line"/>
		</contour>
	</outline>
</glyph>
<glyph name="C" format="2">
	<advance width="726"/>
	<unicode hex="0043"/>
	<anchor x="389" y="710" name="top"/>
	<anchor x="400" y="0" name="bottom"/>
	<outline>
		<contour>
			<point x="400" y="-10" type="curve" smooth="yes"/>
			<point x="510" y="-10"/>
			<point x="564" y="10"/>
			<point x="623" y="39" type="curve"/>
			<point x="634" y="198" type="line"/>
			<point x="617" y="198" type="line"/>
			<point x="540" y="62" type="line"/>
			<point x="578" y="106" type="line"/>
			<point x="535" y="76"/>
			<point x="486" y="41"/>
			<point x="398" y="41" type="curve" smooth="yes"/>
			<point x="268" y="41"/>
			<point x="163" y="152"/>
			<point x="163" y="342" type="curve" smooth="yes"/>
			<point x="163" y="504"/>
			<point x="269" y="620"/>
			<point x="413" y="620" type="curve" smooth="yes"/>
			<point x="467" y="620"/>
			<point x="502" y="600"/>
			<point x="565" y="554" type="curve"/>
			<point x="529" y="599" type="line"/>
			<point x="605" y="447" type="line"/>
			<point x="623" y="447" type="line"/>
			<point x="618" y="622" type="line"/>
			<point x="563.21619" y="648.89386"/>
			<point x="515" y="670"/>
			<point x="415" y="670" type="curve" smooth="yes"/>
			<point x="228" y="670"/>
			<point x="70" y="501.47076"/>
			<point x="70" y="312" type="curve" smooth="yes"/>
			<point x="70" y="126"/>
			<point x="195" y="-10"/>
		</contour>
	</outline>
</glyph>
<glyph name="L" format="2">
	<advance width="632"/>
	<unicode hex="004C"/>
	<anchor x="190" y="710" name="top"/>
	<anchor x="490" y="347" name="mid"/>
	<anchor x="475" y="660" name="right"/>
	<anchor x="354" y="0" name="bottom"/>
	<outline>
		<contour>
			<point x="65" y="0" type="line"/>
			<point x="562" y="0" type="line"/>
			<point x="562" y="222" type="line"/>
			<point x="546" y="222" type="line"/>
			<point x="478" y="55" type="line"/>
			<point x="235" y="55" type="line"/>
			<point x="235" y="604" type="line"/>
			<point x="325" y="644" type="line"/>
			<point x="325" y="660" type="line"/>
			<point x="65" y="660" type="line"/>
			<point x="65" y="644" type="line"/>
			<point x="145" y="604" type="line"/>
			<point x="145" y="56" type="line"/>
			<point x="65" y="16" type="line"/>
		</contour>
	</outline>
</glyph>
<glyph name="backslash" format="2">
	<advance width="250"/>
	<unicode hex="005C"/>
	<outline>
		<contour>
			<point x="200" y="-120" type="line"/>
			<point x="250" y="-120" type="line"/>
			<point x="50" y="750" type="line"/>
			<point x="0" y="750" type="line"/>
		</contour>
	</outline>
</glyph>
<glyph name="underscore" format="2">
	<advance width="500"/>
	<unicode hex="005F"/>
	<outline>
		<contour>
			<point x="25" y="-140" type="line"/>
			<point x="475" y="-140" type="line"/>
			<point x="475" y="-90" type="line"/>
			<point x="25" y="-90" type="line"/>
		</contour>
	</outline>
</glyph>
<glyph name="section" format="2">
	<advance width="500"/>
	<unicode hex="00A7"/>
	<outline>
		<contour>
			<point x="465" y="291" type="curve" smooth="yes"/>
			<point x="465" y="482"/>
			<point x="166" y="378"/>
			<point x="166" y="543" type="curve" smooth="yes"/>
			<point x="166" y="587"/>
			<point x="205" y="620"/>
			<point x="252" y="620" type="curve" smooth="yes"/>
			<point x="291" y="620"/>
			<point x="319" y="600"/>
			<point x="341" y="576" type="curve" smooth="yes"/>
			<point x="362" y="554" type="line"/>
			<point x="366" y="554" type="line"/>
			<point x="401" y="587" type="line" smooth="yes"/>
			<point x="410" y="596"/>
			<point x="414" y="603"/>
			<point x="414" y="609" type="curve" smooth="yes"/>
			<point x="414" y="618"/>
			<point x="407" y="626"/>
			<point x="398" y="636" type="curve" smooth="yes"/>
			<point x="378" y="655"/>
			<point x="350" y="670"/>
			<point x="314" y="670" type="curve" smooth="yes"/>
			<point x="189" y="670"/>
			<point x="98" y="591"/>
			<point x="98" y="503" type="curve" smooth="yes"/>
			<point x="98" y="292"/>
			<point x="397" y="412"/>
			<point x="397" y="253" type="curve" smooth="yes"/>
			<point x="397" y="206"/>
			<point x="347" y="170"/>
			<point x="297" y="170" type="curve"/>
			<point x="297" y="137" type="line"/>
			<point x="400" y="155"/>
			<point x="465" y="208"/>
		</contour>
		<contour>
			<point x="188" y="-120" type="curve" smooth="yes"/>
			<point x="290" y="-120"/>
			<point x="401" y="-38"/>
			<point x="401" y="48" type="curve" smooth="yes"/>
			<point x="401" y="251"/>
			<point x="105" y="139"/>
			<point x="105" y="302" type="curve" smooth="yes"/>
			<point x="105" y="354"/>
			<point x="134" y="388"/>
			<point x="207" y="390" type="curve"/>
			<point x="207" y="422" type="line"/>
			<point x="102" y="407"/>
			<point x="32" y="355"/>
			<point x="32" y="273" type="curve" smooth="yes"/>
			<point x="32" y="70"/>
			<point x="333" y="175"/>
			<point x="333" y="12" type="curve" smooth="yes"/>
			<point x="333" y="-32"/>
			<point x="297" y="-66"/>
			<point x="244" y="-66" type="curve" smooth="yes"/>
			<point x="200" y="-66"/>
			<point x="171" y="-42"/>
			<point x="147" y="-16" type="curve" smooth="yes"/>
			<point x="125" y="8" type="line"/>
			<point x="120" y="8" type="line"/>
			<point x="82" y="-28" type="line" smooth="yes"/>
			<point x="72" y="-36"/>
			<point x="69" y="-46"/>
			<point x="69" y="-51" type="curve" smooth="yes"/>
			<point x="69" y="-60"/>
			<point x="75" y="-69"/>
			<point x="86" y="-81" type="curve" smooth="yes"/>
			<point x="106" y="-101"/>
			<point x="149" y="-120"/>
		</contour>
	</outline>
</glyph>
<glyph name="hiriq-hb" format="2">
	<advance width="0"/>
	<unicode hex="05B4"/>
	<anchor x="0" y="0" name="_bottom"/>
	<outline>
		<contour>
			<point x="0" y="-190" type="curve" smooth="yes"/>
			<point x="25" y="-190"/>
			<point x="45" y="-170"/>
			<point x="45" y="-145" type="curve" smooth="yes"/>
			<point x="45" y="-120"/>
			<point x="25" y="-100"/>
			<point x="0" y="-100" type="curve" smooth="yes"/>
			<point x="-25" y="-100"/>
			<point x="-45" y="-120"/>
			<point x="-45" y="-145" type="curve" smooth="yes"/>
			<point x="-45" y="-170"/>
			<point x="-25" y="-190"/>
		</contour>
	</outline>
</glyph>
<glyph name="patah-hb" format="2">
	<advance width="0"/>
	<unicode hex="05B7"/>
	<anchor x="0" y="0" name="_bottom"/>
	<outline>
		<contour>
			<point x="-139" y="-156" type="curve" smooth="yes"/>
			<point x="-117" y="-156"/>
			<point x="-75" y="-149"/>
			<point x="-1" y="-149" type="curve" smooth="yes"/>
			<point x="68" y="-149"/>
			<point x="123" y="-156"/>
			<point x="143" y="-156" type="curve" smooth="yes"/>
			<point x="160" y="-156"/>
			<point x="171" y="-141"/>
			<point x="171" y="-118" type="curve" smooth="yes"/>
			<point x="171" y="-96"/>
			<point x="160" y="-80"/>
			<point x="143" y="-80" type="curve" smooth="yes"/>
			<point x="123" y="-80"/>
			<point x="68" y="-86"/>
			<point x="-1" y="-86" type="curve" smooth="yes"/>
			<point x="-75" y="-86"/>
			<point x="-117" y="-80"/>
			<point x="-139" y="-80" type="curve" smooth="yes"/>
			<point x="-156" y="-80"/>
			<point x="-167" y="-96"/>
			<point x="-167" y="-118" type="curve" smooth="yes"/>
			<point x="-167" y="-141"/>
			<point x="-156" y="-156"/>
		</contour>
	</outline>
</glyph>
<glyph name="qamats-hb" format="2">
	<advance width="0"/>
	<unicode hex="05B8"/>
	<anchor x="0" y="0" name="_bottom"/>
	<outline>
		<contour>
			<point x="-147" y="-158" type="curve" smooth="yes"/>
			<point x="-109" y="-158"/>
			<point x="-90" y="-148"/>
			<point x="-53" y="-148" type="curve" smooth="yes"/>
			<point x="-29" y="-148"/>
			<point x="-19" y="-170"/>
			<point x="-19" y="-189" type="curve" smooth="yes"/>
			<point x="-19" y="-221"/>
			<point x="-51" y="-252"/>
			<point x="-51" y="-285" type="curve" smooth="yes"/>
			<point x="-51" y="-309"/>
			<point x="-32" y="-330"/>
			<point x="-2" y="-330" type="curve" smooth="yes"/>
			<point x="28" y="-330"/>
			<point x="50" y="-309"/>
			<point x="50" y="-285" type="curve" smooth="yes"/>
			<point x="50" y="-252"/>
			<point x="19" y="-221"/>
			<point x="19" y="-189" type="curve" smooth="yes"/>
			<point x="19" y="-170"/>
			<point x="28" y="-148"/>
			<point x="54" y="-148" type="curve" smooth="yes"/>
			<point x="92" y="-148"/>
			<point x="113" y="-156"/>
			<point x="151" y="-156" type="curve" smooth="yes"/>
			<point x="168" y="-156"/>
			<point x="182" y="-141"/>
			<point x="182" y="-117" type="curve" smooth="yes"/>
			<point x="182" y="-93"/>
			<point x="168" y="-82"/>
			<point x="151" y="-82" type="curve" smooth="yes"/>
			<point x="113" y="-82"/>
			<point x="45" y="-93"/>
			<point x="-2" y="-93" type="curve" smooth="yes"/>
			<point x="-42" y="-93"/>
			<point x="-115" y="-82"/>
			<point x="-147" y="-82" type="curve" smooth="yes"/>
			<point x="-164" y="-82"/>
			<point x="-178" y="-95"/>
			<point x="-178" y="-119" type="curve" smooth="yes"/>
			<point x="-178" y="-143"/>
			<point x="-164" y="-158"/>
		</contour>
	</outline>
</glyph>
<glyph name="holam-hb" format="2">
	<advance width="0"/>
	<unicode hex="05B9"/>
	<anchor x="0" y="415" name="_topleft"/>
	<outline>
		<contour>
			<point x="0" y="493" type="curve" smooth="yes"/>
			<point x="25" y="493"/>
			<point x="45" y="513"/>
			<point x="45" y="538" type="curve" smooth="yes"/>
			<point x="45" y="563"/>
			<point x="25" y="583"/>
			<point x="0" y="583" type="curve" smooth="yes"/>
			<point x="-25" y="583"/>
			<point x="-45" y="563"/>
			<point x="-45" y="538" type="curve" smooth="yes"/>
			<point x="-45" y="513"/>
			<point x="-25" y="493"/>
		</contour>
	</outline>
</glyph>
<glyph name="dagesh-hb" format="2">
	<advance width="0"/>
	<unicode hex="05BC"/>
	<anchor x="0" y="317" name="_center"/>
	<outline>
		<contour>
			<point x="0" y="273" type="curve" smooth="yes"/>
			<point x="25" y="273"/>
			<point x="45" y="293"/>
			<point x="45" y="318" type="curve" smooth="yes"/>
			<point x="45" y="343"/>
			<point x="25" y="363"/>
			<point x="0" y="363" type="curve" smooth="yes"/>
			<point x="-25" y="363"/>
			<point x="-45" y="343"/>
			<point x="-45" y="318" type="curve" smooth="yes"/>
			<point x="-45" y="293"/>
			<point x="-25" y="273"/>
		</contour>
	</outline>
</glyph>
<glyph name="qamatsqatan-hb" format="2">
	<advance width="0"/>
	<unicode hex="05C7"/>
	<anchor x="0" y="0" name="_bottom"/>
	<outline>
		<contour>
			<point x="-102" y="-131" type="curve" smooth="yes"/>
			<point x="-24.944" y="-131" type="line" smooth="yes"/>
			<point x="-16" y="-131"/>
			<point x="-15" y="-145"/>
			<point x="-15" y="-154" type="curve" smooth="yes"/>
			<point x="-15" y="-177"/>
			<point x="-25" y="-200"/>
			<point x="-25" y="-223" type="curve" smooth="yes"/>
			<point x="-25" y="-236"/>
			<point x="-16" y="-245"/>
			<point x="-3" y="-245" type="curve" smooth="yes"/>
			<point x="4" y="-245" type="line" smooth="yes"/>
			<point x="17" y="-245"/>
			<point x="26" y="-236"/>
			<point x="26" y="-223" type="curve" smooth="yes"/>
			<point x="26" y="-200"/>
			<point x="16" y="-177"/>
			<point x="16" y="-154" type="curve" smooth="yes"/>
			<point x="16" y="-145"/>
			<point x="17" y="-131"/>
			<point x="25.944" y="-131" type="curve" smooth="yes"/>
			<point x="106" y="-131" type="line" smooth="yes"/>
			<point x="119" y="-131"/>
			<point x="128" y="-122"/>
			<point x="128" y="-109" type="curve" smooth="yes"/>
			<point x="128" y="-101" type="line" smooth="yes"/>
			<point x="128" y="-88"/>
			<point x="119" y="-79"/>
			<point x="106" y="-79" type="curve" smooth="yes"/>
			<point x="-102" y="-79" type="line" smooth="yes"/>
			<point x="-115" y="-79"/>
			<point x="-124" y="-88"/>
			<point x="-124" y="-101" type="curve" smooth="yes"/>
			<point x="-124" y="-109" type="line" smooth="yes"/>
			<point x="-124" y="-122"/>
			<point x="-115" y="-131"/>
		</contour>
	</outline>
</glyph>
<glyph name="alef-hb" format="2">
	<advance width="541"/>
	<unicode hex="05D0"/>
	<anchor x="285" y="324" name="center"/>
	<anchor x="367" y="800" name="top"/>
	<anchor x="15" y="0" name="bottomleft"/>
	<anchor x="7" y="604" name="topleft"/>
	<anchor x="245" y="0" name="bottom"/>
	<outline>
		<contour>
			<point x="88.9" y="-29.4" type="curve" smooth="yes"/>
			<point x="70" y="-29"/>
			<point x="62" y="-8"/>
			<point x="62" y="11" type="curve" smooth="yes"/>
			<point x="62" y="40"/>
			<point x="67" y="76"/>
			<point x="67" y="105" type="curve" smooth="yes"/>
			<point x="67" y="146"/>
			<point x="60" y="219"/>
			<point x="60" y="261" type="curve" smooth="yes"/>
			<point x="60" y="402"/>
			<point x="118" y="450"/>
			<point x="118" y="457" type="curve" smooth="yes"/>
			<point x="118" y="462"/>
			<point x="113" y="465"/>
			<point x="95" y="467" type="curve" smooth="yes"/>
			<point x="74" y="469"/>
			<point x="56" y="478"/>
			<point x="47" y="490" type="curve" smooth="yes"/>
			<point x="39" y="500"/>
			<point x="32" y="545"/>
			<point x="32.2" y="560" type="curve" smooth="yes"/>
			<point x="33" y="588"/>
			<point x="34" y="637"/>
			<point x="70" y="637" type="curve" smooth="yes"/>
			<point x="80" y="637"/>
			<point x="90" y="635"/>
			<point x="99" y="635" type="curve" smooth="yes"/>
			<point x="105" y="635"/>
			<point x="109" y="640"/>
			<point x="109" y="649" type="curve" smooth="yes"/>
			<point x="109" y="714"/>
			<point x="158" y="833"/>
			<point x="187" y="862" type="curve" smooth="yes"/>
			<point x="211" y="886"/>
			<point x="237" y="888"/>
			<point x="260" y="888" type="curve" smooth="yes"/>
			<point x="295" y="888"/>
			<point x="336" y="870"/>
			<point x="336" y="833" type="curve" smooth="yes"/>
			<point x="336" y="787"/>
			<point x="255" y="744"/>
			<point x="229" y="724" type="curve" smooth="yes"/>
			<point x="181" y="687"/>
			<point x="158" y="655"/>
			<point x="158.2" y="634.9" type="curve" smooth="yes"/>
			<point x="158" y="631"/>
			<point x="161" y="629"/>
			<point x="165.2" y="629.3" type="curve" smooth="yes"/>
			<point x="199" y="629"/>
			<point x="250" y="636"/>
			<point x="284.9" y="636.3" type="curve" smooth="yes"/>
			<point x="467" y="636"/>
			<point x="501" y="478"/>
			<point x="501" y="362" type="curve" smooth="yes"/>
			<point x="501" y="245"/>
			<point x="430" y="24"/>
			<point x="325.5" y="22.4" type="curve" smooth="yes"/>
			<point x="293" y="22"/>
			<point x="274" y="35"/>
			<point x="274" y="64" type="curve" smooth="yes"/>
			<point x="274" y="120"/>
			<point x="442" y="188"/>
			<point x="442" y="309" type="curve" smooth="yes"/>
			<point x="442" y="419"/>
			<point x="402" y="466"/>
			<point x="256" y="466" type="curve" smooth="yes"/>
			<point x="230" y="466"/>
			<point x="200" y="462"/>
			<point x="191" y="459" type="curve" smooth="yes"/>
			<point x="175" y="454"/>
			<point x="137" y="400"/>
			<point x="137" y="364" type="curve" smooth="yes"/>
			<point x="138" y="299"/>
			<point x="189" y="192"/>
			<point x="189" y="86.1" type="curve" smooth="yes"/>
			<point x="189" y="76.3"/>
			<point x="188.3" y="67.2"/>
			<point x="186.2" y="59.5" type="curve" smooth="yes"/>
			<point x="182.7" y="46.9"/>
			<point x="172.2" y="33.6"/>
			<point x="164.5" y="23.1" type="curve" smooth="yes"/>
			<point x="156.8" y="13.3"/>
			<point x="148.4" y="2.8"/>
			<point x="139.3" y="-5.6" type="curve" smooth="yes"/>
			<point x="132.3" y="-11.2"/>
			<point x="125.3" y="-16.1"/>
			<point x="117.6" y="-20.3" type="curve" smooth="yes"/>
			<point x="109.9" y="-23.8"/>
			<point x="98.7" y="-29.4"/>
		</contour>
	</outline>
</glyph>
<glyph name="gimel-hb" format="2">
	<advance width="426"/>
	<unicode hex="05D2"/>
	<anchor x="150" y="315" name="center"/>
	<outline>
		<contour>
			<point x="294" y="147" type="curve" smooth="yes"/>
			<point x="299" y="147"/>
			<point x="301" y="152"/>
			<point x="301" y="157" type="curve" smooth="yes"/>
			<point x="301" y="214"/>
			<point x="291" y="329"/>
			<point x="255" y="397" type="curve" smooth="yes"/>
			<point x="205" y="490"/>
			<point x="113" y="485"/>
			<point x="113" y="528" type="curve" smooth="yes"/>
			<point x="113" y="570"/>
			<point x="151" y="662"/>
			<point x="193" y="662" type="curve" smooth="yes"/>
			<point x="259" y="662"/>
			<point x="319" y="602"/>
			<point x="335" y="552" type="curve" smooth="yes"/>
			<point x="369" y="445"/>
			<point x="358" y="206"/>
			<point x="358" y="32" type="curve" smooth="yes"/>
			<point x="358" y="1"/>
			<point x="346" y="-7"/>
			<point x="311" y="-7" type="curve" smooth="yes"/>
			<point x="304" y="-7"/>
			<point x="299" y="-5"/>
			<point x="299" y="0" type="curve" smooth="yes"/>
			<point x="299" y="32"/>
			<point x="302" y="65"/>
			<point x="302" y="79" type="curve" smooth="yes"/>
			<point x="302" y="100"/>
			<point x="289" y="108"/>
			<point x="263" y="108" type="curve" smooth="yes"/>
			<point x="190" y="108"/>
			<point x="200" y="-15"/>
			<point x="98" y="-15" type="curve" smooth="yes"/>
			<point x="58" y="-15"/>
			<point x="-6" y="8"/>
			<point x="-6" y="45" type="curve" smooth="yes"/>
			<point x="-6" y="56"/>
			<point x="39" y="56"/>
			<point x="54" y="111" type="curve" smooth="yes"/>
			<point x="65" y="150"/>
			<point x="91" y="195"/>
			<point x="156" y="195" type="curve" smooth="yes"/>
			<point x="225" y="195"/>
			<point x="286" y="147"/>
		</contour>
	</outline>
</glyph>
<glyph name="dalet-hb" format="2">
	<advance width="501"/>
	<unicode hex="05D3"/>
	<anchor x="182" y="348" name="center"/>
	<outline>
		<contour>
			<point x="302" y="-29" type="curve" smooth="yes"/>
			<point x="258" y="-29"/>
			<point x="199" y="37"/>
			<point x="199" y="71" type="curve" smooth="yes"/>
			<point x="199" y="156"/>
			<point x="371" y="380"/>
			<point x="371" y="459.9" type="curve" smooth="yes"/>
			<point x="371" y="470"/>
			<point x="363" y="476"/>
			<point x="347" y="476" type="curve" smooth="yes"/>
			<point x="276" y="476"/>
			<point x="155" y="464"/>
			<point x="123" y="464" type="curve" smooth="yes"/>
			<point x="66" y="464"/>
			<point x="28" y="480"/>
			<point x="28" y="545" type="curve" smooth="yes"/>
			<point x="28" y="600"/>
			<point x="41" y="673"/>
			<point x="44" y="683" type="curve" smooth="yes"/>
			<point x="46" y="690"/>
			<point x="53" y="694"/>
			<point x="65" y="694" type="curve" smooth="yes"/>
			<point x="79" y="694"/>
			<point x="90" y="690"/>
			<point x="93" y="680" type="curve" smooth="yes"/>
			<point x="99" y="660"/>
			<point x="109" y="634"/>
			<point x="164.5" y="633.5" type="curve" smooth="yes"/>
			<point x="177" y="633"/>
			<point x="415" y="639"/>
			<point x="448" y="639" type="curve" smooth="yes"/>
			<point x="470" y="639"/>
			<point x="479" y="620"/>
			<point x="478.8" y="585.2" type="curve" smooth="yes"/>
			<point x="479" y="515"/>
			<point x="426" y="502"/>
			<point x="426" y="470" type="curve" smooth="yes"/>
			<point x="426" y="457"/>
			<point x="430" y="441"/>
			<point x="430" y="429" type="curve" smooth="yes"/>
			<point x="430" y="349"/>
			<point x="348" y="-29"/>
		</contour>
	</outline>
</glyph>
<glyph name="he-hb" format="2">
	<advance width="580"/>
	<unicode hex="05D4"/>
	<anchor x="309" y="328" name="center"/>
	<outline>
		<contour>
			<point x="274" y="-29" type="curve" smooth="yes"/>
			<point x="133" y="-29"/>
			<point x="57" y="128"/>
			<point x="57" y="269" type="curve" smooth="yes"/>
			<point x="57" y="300"/>
			<point x="62" y="338"/>
			<point x="64" y="345" type="curve" smooth="yes"/>
			<point x="66" y="352"/>
			<point x="70" y="355"/>
			<point x="87" y="355" type="curve" smooth="yes"/>
			<point x="102" y="355"/>
			<point x="105" y="352"/>
			<point x="106" y="347" type="curve" smooth="yes"/>
			<point x="116" y="269"/>
			<point x="159" y="199"/>
			<point x="218" y="181" type="curve" smooth="yes"/>
			<point x="312" y="152"/>
			<point x="321" y="139"/>
			<point x="321" y="68" type="curve" smooth="yes"/>
			<point x="321" y="-6"/>
			<point x="314" y="-29"/>
		</contour>
		<contour>
			<point x="475" y="105" type="curve" smooth="yes"/>
			<point x="446" y="105"/>
			<point x="422" y="119"/>
			<point x="422" y="145" type="curve" smooth="yes"/>
			<point x="422" y="191"/>
			<point x="483" y="222"/>
			<point x="483" y="324" type="curve" smooth="yes"/>
			<point x="483" y="435"/>
			<point x="396" y="468"/>
			<point x="283" y="468" type="curve" smooth="yes"/>
			<point x="265" y="468"/>
			<point x="170" y="462"/>
			<point x="144" y="462" type="curve" smooth="yes"/>
			<point x="47" y="462"/>
			<point x="46" y="520"/>
			<point x="46" y="568" type="curve" smooth="yes"/>
			<point x="46" y="612"/>
			<point x="63" y="682"/>
			<point x="64" y="685" type="curve" smooth="yes"/>
			<point x="67" y="692"/>
			<point x="75" y="691"/>
			<point x="90" y="692" type="curve" smooth="yes"/>
			<point x="97" y="692"/>
			<point x="104" y="691"/>
			<point x="109" y="686" type="curve" smooth="yes"/>
			<point x="116" y="680"/>
			<point x="113" y="671"/>
			<point x="118" y="664" type="curve" smooth="yes"/>
			<point x="138" y="631"/>
			<point x="172" y="628"/>
			<point x="208" y="628" type="curve" smooth="yes"/>
			<point x="242" y="628"/>
			<point x="281" y="634"/>
			<point x="316" y="634" type="curve" smooth="yes"/>
			<point x="483" y="634"/>
			<point x="538" y="495"/>
			<point x="538" y="333" type="curve" smooth="yes"/>
			<point x="538" y="265"/>
			<point x="519" y="105"/>
		</contour>
	</outline>
</glyph>
<glyph name="zayin-hb" format="2">
	<advance width="270"/>
	<unicode hex="05D6"/>
	<anchor x="0" y="254" name="center"/>
	<anchor x="194" y="690" name="top"/>
	<anchor x="7" y="0" name="bottomleft"/>
	<anchor x="67" y="690" name="topleft"/>
	<anchor x="117" y="0" name="bottom"/>
	<outline>
		<contour>
			<point x="106" y="-28" type="curve" smooth="yes"/>
			<point x="91" y="-28"/>
			<point x="81" y="-24"/>
			<point x="81" y="-12" type="curve" smooth="yes"/>
			<point x="81" y="15"/>
			<point x="92" y="116"/>
			<point x="92" y="165" type="curve" smooth="yes"/>
			<point x="92" y="411"/>
			<point x="45" y="483"/>
			<point x="45" y="542" type="curve" smooth="yes"/>
			<point x="45" y="587"/>
			<point x="138" y="652"/>
			<point x="198" y="652" type="curve" smooth="yes"/>
			<point x="217" y="652"/>
			<point x="242" y="561"/>
			<point x="242" y="530" type="curve" smooth="yes"/>
			<point x="242" y="457"/>
			<point x="148" y="425"/>
			<point x="148" y="370" type="curve" smooth="yes"/>
			<point x="148" y="344"/>
			<point x="175" y="300"/>
			<point x="175" y="211" type="curve" smooth="yes"/>
			<point x="175" y="167"/>
			<point x="153" y="-28"/>
		</contour>
	</outline>
</glyph>
<glyph name="tet-hb" format="2">
	<advance width="600"/>
	<unicode hex="05D8"/>
	<anchor x="364" y="327" name="center"/>
	<outline>
		<contour>
			<point x="170" y="-103" type="curve" smooth="yes"/>
			<point x="141" y="-103"/>
			<point x="126" y="-99"/>
			<point x="126" y="-90" type="curve" smooth="yes"/>
			<point x="126" y="-71"/>
			<point x="160" y="32"/>
			<point x="160" y="189" type="curve" smooth="yes"/>
			<point x="159" y="496"/>
			<point x="26" y="501"/>
			<point x="26" y="541" type="curve" smooth="yes"/>
			<point x="26" y="589"/>
			<point x="77" y="673"/>
			<point x="122" y="673" type="curve" smooth="yes"/>
			<point x="150" y="673"/>
			<point x="205" y="540"/>
			<point x="213" y="364" type="curve" smooth="yes"/>
			<point x="221" y="180"/>
			<point x="226" y="163"/>
			<point x="231" y="157" type="curve" smooth="yes"/>
			<point x="239" y="148"/>
			<point x="277" y="141"/>
			<point x="333" y="141" type="curve" smooth="yes"/>
			<point x="468" y="142"/>
			<point x="529" y="239"/>
			<point x="529" y="324" type="curve" smooth="yes"/>
			<point x="529" y="437"/>
			<point x="438" y="497"/>
			<point x="379" y="497" type="curve" smooth="yes"/>
			<point x="331" y="497"/>
			<point x="296" y="466"/>
			<point x="279" y="466" type="curve" smooth="yes"/>
			<point x="268" y="466"/>
			<point x="260" y="492"/>
			<point x="260" y="505" type="curve" smooth="yes"/>
			<point x="260" y="519"/>
			<point x="381" y="676"/>
			<point x="403" y="676" type="curve" smooth="yes"/>
			<point x="519" y="676"/>
			<point x="586" y="480"/>
			<point x="586" y="341" type="curve" smooth="yes"/>
			<point x="586" y="159"/>
			<point x="499" y="-24"/>
			<point x="308" y="-24" type="curve" smooth="yes"/>
			<point x="245" y="-24"/>
			<point x="217" y="-7"/>
			<point x="205" y="-7" type="curve" smooth="yes"/>
			<point x="195" y="-7"/>
			<point x="187" y="-103"/>
		</contour>
	</outline>
</glyph>
<glyph name="kafFinal-hb" format="2">
	<advance width="465"/>
	<unicode hex="05DA"/>
	<anchor x="154" y="317" name="center"/>
	<anchor x="232" y="-317" name="bottom"/>
	<outline>
		<contour>
			<point x="318" y="470" type="curve" smooth="yes"/>
			<point x="303" y="470"/>
			<point x="169" y="464"/>
			<point x="110" y="464" type="curve" smooth="yes"/>
			<point x="51" y="464"/>
			<point x="25" y="495"/>
			<point x="25" y="558" type="curve" smooth="yes"/>
			<point x="25" y="594"/>
			<point x="35" y="667"/>
			<point x="39" y="677" type="curve" smooth="yes"/>
			<point x="43" y="686"/>
			<point x="63" y="694"/>
			<point x="75" y="694" type="curve" smooth="yes"/>
			<point x="84" y="694"/>
			<point x="90" y="691"/>
			<point x="93" y="680" type="curve" smooth="yes"/>
			<point x="97" y="665"/>
			<point x="114" y="628"/>
			<point x="195" y="628" type="curve" smooth="yes"/>
			<point x="220" y="628"/>
			<point x="258" y="634"/>
			<point x="289" y="634" type="curve" smooth="yes"/>
			<point x="377" y="634"/>
			<point x="406" y="572"/>
			<point x="406" y="509" type="curve" smooth="yes"/>
			<point x="406" y="440"/>
			<point x="370" y="373"/>
			<point x="370" y="295" type="curve" smooth="yes"/>
			<point x="370" y="219"/>
			<point x="424" y="-104"/>
			<point x="424" y="-200" type="curve" smooth="yes"/>
			<point x="424" y="-260"/>
			<point x="367" y="-342"/>
			<point x="309" y="-342" type="curve" smooth="yes"/>
			<point x="290" y="-342"/>
			<point x="277" y="-317"/>
			<point x="277" y="-298" type="curve" smooth="yes"/>
			<point x="277" y="-247"/>
			<point x="282" y="-57"/>
			<point x="282" y="124" type="curve" smooth="yes"/>
			<point x="282" y="381"/>
			<point x="329" y="438"/>
			<point x="329" y="457" type="curve" smooth="yes"/>
			<point x="329" y="465"/>
			<point x="326" y="470"/>
		</contour>
	</outline>
</glyph>
<glyph name="kaf-hb" format="2">
	<advance width="465"/>
	<unicode hex="05DB"/>
	<anchor x="192" y="329" name="center"/>
	<outline>
		<contour>
			<point x="73" y="708" type="curve" smooth="yes"/>
			<point x="78" y="708"/>
			<point x="84" y="705"/>
			<point x="86" y="695" type="curve" smooth="yes"/>
			<point x="93" y="653"/>
			<point x="137" y="642"/>
			<point x="165" y="642" type="curve" smooth="yes"/>
			<point x="194" y="642"/>
			<point x="220" y="645"/>
			<point x="239" y="645" type="curve" smooth="yes"/>
			<point x="362" y="645"/>
			<point x="415" y="525"/>
			<point x="415" y="368" type="curve" smooth="yes"/>
			<point x="415" y="193"/>
			<point x="325" y="-17"/>
			<point x="52" y="-17" type="curve" smooth="yes"/>
			<point x="30" y="-17"/>
			<point x="23" y="-4"/>
			<point x="23" y="54" type="curve" smooth="yes"/>
			<point x="23" y="101"/>
			<point x="29" y="136"/>
			<point x="44" y="147" type="curve" smooth="yes"/>
			<point x="55" y="155"/>
			<point x="71" y="160"/>
			<point x="99" y="160" type="curve" smooth="yes"/>
			<point x="206" y="160"/>
			<point x="358" y="195"/>
			<point x="358" y="346" type="curve" smooth="yes"/>
			<point x="358" y="431"/>
			<point x="315" y="477"/>
			<point x="230" y="477" type="curve" smooth="yes"/>
			<point x="202" y="477"/>
			<point x="166" y="472"/>
			<point x="137" y="472" type="curve" smooth="yes"/>
			<point x="72" y="472"/>
			<point x="18" y="477"/>
			<point x="15" y="571" type="curve" smooth="yes"/>
			<point x="14" y="620"/>
			<point x="29" y="689"/>
			<point x="35" y="698" type="curve" smooth="yes"/>
			<point x="40" y="706"/>
			<point x="60" y="708"/>
		</contour>
	</outline>
</glyph>
<glyph name="memFinal-hb" format="2">
	<advance width="580"/>
	<unicode hex="05DD"/>
	<anchor x="306" y="0" name="bottom"/>
	<outline>
		<contour>
			<point x="163" y="462"/>
			<point x="125" y="436"/>
			<point x="125" y="328" type="curve" smooth="yes"/>
			<point x="125" y="228"/>
			<point x="164" y="142"/>
			<point x="321" y="142" type="curve" smooth="yes"/>
			<point x="405" y="142"/>
			<point x="499" y="212"/>
			<point x="499.1" y="294" type="curve" smooth="yes"/>
			<point x="499" y="412"/>
			<point x="466" y="462"/>
			<point x="353" y="462" type="curve" smooth="yes"/>
		</contour>
		<contour>
			<point x="70" y="689" type="curve" smooth="yes"/>
			<point x="73" y="696"/>
			<point x="97" y="700"/>
			<point x="107" y="700" type="curve" smooth="yes"/>
			<point x="112" y="700"/>
			<point x="116" y="698"/>
			<point x="116" y="692" type="curve" smooth="yes"/>
			<point x="116" y="661"/>
			<point x="152" y="635"/>
			<point x="235" y="635" type="curve" smooth="yes"/>
			<point x="278" y="635"/>
			<point x="308" y="639"/>
			<point x="366" y="639" type="curve" smooth="yes"/>
			<point x="474" y="639"/>
			<point x="550" y="510"/>
			<point x="550" y="341" type="curve" smooth="yes"/>
			<point x="550" y="189"/>
			<point x="497" y="-31"/>
			<point x="279" y="-31" type="curve" smooth="yes"/>
			<point x="130" y="-31"/>
			<point x="42" y="102"/>
			<point x="42" y="260.4" type="curve" smooth="yes"/>
			<point x="42" y="404"/>
			<point x="114" y="453"/>
			<point x="114" y="462" type="curve" smooth="yes"/>
			<point x="114" y="470"/>
			<point x="50" y="480"/>
			<point x="50" y="539" type="curve" smooth="yes"/>
			<point x="50" y="596"/>
			<point x="66" y="681"/>
		</contour>
	</outline>
</glyph>
<glyph name="mem-hb" format="2">
	<advance width="619"/>
	<unicode hex="05DE"/>
	<anchor x="356" y="295" name="center"/>
	<outline>
		<contour>
			<point x="320" y="631"/>
			<point x="353" y="656"/>
			<point x="385" y="656" type="curve" smooth="yes"/>
			<point x="509" y="656"/>
			<point x="571" y="502"/>
			<point x="571" y="359" type="curve" smooth="yes"/>
			<point x="571" y="146"/>
			<point x="462" y="-19"/>
			<point x="338" y="-19" type="curve" smooth="yes"/>
			<point x="303" y="-19"/>
			<point x="299" y="2"/>
			<point x="299" y="37" type="curve" smooth="yes"/>
			<point x="299" y="67"/>
			<point x="301" y="87"/>
			<point x="339" y="97" type="curve" smooth="yes"/>
			<point x="412" y="116"/>
			<point x="512" y="182"/>
			<point x="512" y="295" type="curve" smooth="yes"/>
			<point x="512" y="395"/>
			<point x="440" y="472"/>
			<point x="348" y="472" type="curve" smooth="yes"/>
			<point x="304" y="472"/>
			<point x="229" y="453"/>
			<point x="229" y="427" type="curve" smooth="yes"/>
			<point x="229" y="409"/>
			<point x="235" y="361"/>
			<point x="235" y="328" type="curve" smooth="yes"/>
			<point x="235" y="236"/>
			<point x="184" y="-31"/>
			<point x="75" y="-31" type="curve" smooth="yes"/>
			<point x="55" y="-31"/>
			<point x="34" y="-25"/>
			<point x="34" y="8" type="curve" smooth="yes"/>
			<point x="34" y="36"/>
			<point x="35" y="60"/>
			<point x="50" y="72" type="curve" smooth="yes"/>
			<point x="160" y="162"/>
			<point x="164" y="228"/>
			<point x="164" y="297" type="curve" smooth="yes"/>
			<point x="164" y="471"/>
			<point x="45" y="487"/>
			<point x="45" y="533" type="curve" smooth="yes"/>
			<point x="45" y="563"/>
			<point x="89" y="655"/>
			<point x="126" y="655" type="curve" smooth="yes"/>
			<point x="147" y="655"/>
			<point x="165" y="640"/>
			<point x="186" y="600" type="curve" smooth="yes"/>
			<point x="206" y="561"/>
			<point x="224" y="503"/>
			<point x="235" y="503" type="curve" smooth="yes"/>
			<point x="246" y="503"/>
			<point x="256" y="522"/>
			<point x="295" y="589" type="curve" smooth="yes"/>
		</contour>
	</outline>
</glyph>
<glyph name="nun-hb" format="2">
	<advance width="347"/>
	<unicode hex="05E0"/>
	<anchor x="104" y="317" name="center"/>
	<outline>
		<contour>
			<point x="42" y="-38" type="curve" smooth="yes"/>
			<point x="23" y="-38"/>
			<point x="15" y="-13"/>
			<point x="15" y="0" type="curve" smooth="yes"/>
			<point x="15" y="21"/>
			<point x="27" y="119"/>
			<point x="35" y="132" type="curve" smooth="yes"/>
			<point x="39" y="139"/>
			<point x="51" y="144"/>
			<point x="62" y="147" type="curve" smooth="yes"/>
			<point x="155" y="173"/>
			<point x="244" y="203"/>
			<point x="244" y="330" type="curve" smooth="yes"/>
			<point x="244" y="419"/>
			<point x="186" y="446"/>
			<point x="88" y="481" type="curve" smooth="yes"/>
			<point x="63" y="490"/>
			<point x="52" y="501"/>
			<point x="52" y="520" type="curve" smooth="yes"/>
			<point x="52" y="568"/>
			<point x="83" y="621"/>
			<point x="106" y="640" type="curve" smooth="yes"/>
			<point x="116" y="648"/>
			<point x="134" y="652"/>
			<point x="155" y="652" type="curve" smooth="yes"/>
			<point x="182" y="652"/>
			<point x="238" y="618"/>
			<point x="266" y="560" type="curve" smooth="yes"/>
			<point x="290" y="509"/>
			<point x="298" y="439"/>
			<point x="298" y="363" type="curve" smooth="yes"/>
			<point x="298" y="299"/>
			<point x="291" y="222"/>
			<point x="262" y="159" type="curve" smooth="yes"/>
			<point x="216" y="59"/>
			<point x="132" y="-38"/>
		</contour>
	</outline>
</glyph>
<glyph name="samekh-hb" format="2">
	<advance width="580"/>
	<unicode hex="05E1"/>
	<anchor x="303" y="303" name="center"/>
	<outline>
		<contour>
			<point x="327.6" y="140.7" type="curve" smooth="yes"/>
			<point x="433" y="141"/>
			<point x="481" y="248"/>
			<point x="480.9" y="342.3" type="curve" smooth="yes"/>
			<point x="481" y="446"/>
			<point x="429" y="462"/>
			<point x="200" y="462" type="curve" smooth="yes"/>
			<point x="180" y="462"/>
			<point x="122" y="389"/>
			<point x="122" y="338" type="curve" smooth="yes"/>
			<point x="122" y="247"/>
			<point x="162" y="140"/>
		</contour>
		<contour>
			<point x="76" y="-132" type="curve" smooth="yes"/>
			<point x="40" y="-132"/>
			<point x="29" y="-106"/>
			<point x="29" y="-77" type="curve" smooth="yes"/>
			<point x="29" y="-35"/>
			<point x="61" y="-7"/>
			<point x="61" y="297" type="curve" smooth="yes"/>
			<point x="61" y="421"/>
			<point x="121" y="456"/>
			<point x="121" y="467" type="curve" smooth="yes"/>
			<point x="121" y="480"/>
			<point x="60" y="488"/>
			<point x="60" y="530" type="curve" smooth="yes"/>
			<point x="60" y="586"/>
			<point x="73" y="667"/>
			<point x="77" y="678" type="curve" smooth="yes"/>
			<point x="82" y="692"/>
			<point x="102" y="699"/>
			<point x="116" y="699" type="curve" smooth="yes"/>
			<point x="134" y="699"/>
			<point x="123" y="638"/>
			<point x="181" y="638" type="curve" smooth="yes"/>
			<point x="236" y="638"/>
			<point x="290" y="645"/>
			<point x="329" y="645" type="curve" smooth="yes"/>
			<point x="517" y="645"/>
			<point x="539" y="444"/>
			<point x="539" y="320.6" type="curve" smooth="yes"/>
			<point x="539" y="151"/>
			<point x="455" y="-30"/>
			<point x="297" y="-32" type="curve" smooth="yes"/>
			<point x="230" y="-32"/>
			<point x="163" y="10"/>
			<point x="140" y="64" type="curve" smooth="yes"/>
			<point x="133" y="80"/>
			<point x="120" y="99"/>
			<point x="113" y="99" type="curve" smooth="yes"/>
			<point x="104" y="99"/>
			<point x="102" y="87"/>
			<point x="102" y="77" type="curve" smooth="yes"/>
			<point x="102" y="40"/>
			<point x="136" y="-39"/>
			<point x="136" y="-74" type="curve" smooth="yes"/>
			<point x="136" y="-105"/>
			<point x="118" y="-132"/>
		</contour>
	</outline>
</glyph>
<glyph name="ayin-hb" format="2">
	<advance width="580"/>
	<unicode hex="05E2"/>
	<outline>
		<contour>
			<point x="81" y="-33" type="curve" smooth="yes"/>
			<point x="36" y="-33"/>
			<point x="18" y="-27"/>
			<point x="18" y="24" type="curve" smooth="yes"/>
			<point x="18" y="48"/>
			<point x="24" y="72"/>
			<point x="29" y="92" type="curve" smooth="yes"/>
			<point x="33" y="113"/>
			<point x="36" y="141"/>
			<point x="56" y="141" type="curve" smooth="yes"/>
			<point x="74" y="141"/>
			<point x="91" y="132"/>
			<point x="160" y="132" type="curve" smooth="yes"/>
			<point x="172" y="132"/>
			<point x="178" y="139"/>
			<point x="178" y="151" type="curve" smooth="yes"/>
			<point x="178" y="250"/>
			<point x="166" y="389"/>
			<point x="147" y="436" type="curve" smooth="yes"/>
			<point x="137" y="461"/>
			<point x="76" y="483"/>
			<point x="76" y="528" type="curve" smooth="yes"/>
			<point x="76" y="555"/>
			<point x="103" y="659"/>
			<point x="131" y="659" type="curve" smooth="yes"/>
			<point x="172" y="659"/>
			<point x="242" y="604"/>
			<point x="242" y="566" type="curve" smooth="yes"/>
			<point x="242" y="531"/>
			<point x="212" y="388"/>
			<point x="231" y="167" type="curve" smooth="yes"/>
			<point x="233" y="146"/>
			<point x="239" y="140"/>
			<point x="261" y="140" type="curve" smooth="yes"/>
			<point x="382" y="140"/>
			<point x="482" y="216"/>
			<point x="482" y="338" type="curve" smooth="yes"/>
			<point x="482" y="417"/>
			<point x="427" y="452"/>
			<point x="379" y="461" type="curve" smooth="yes"/>
			<point x="323" y="471"/>
			<point x="299" y="485"/>
			<point x="299" y="510" type="curve" smooth="yes"/>
			<point x="299" y="548"/>
			<point x="347" y="658"/>
			<point x="386" y="658" type="curve" smooth="yes"/>
			<point x="457" y="658"/>
			<point x="537" y="525"/>
			<point x="537" y="382" type="curve" smooth="yes"/>
			<point x="537" y="121"/>
			<point x="384" y="-33"/>
		</contour>
	</outline>
</glyph>
<glyph name="peFinal-hb" format="2">
	<advance width="541"/>
	<unicode hex="05E3"/>
	<anchor x="285" y="338" name="center"/>
	<anchor x="146" y="0" name="bottom"/>
	<outline>
		<contour>
			<point x="370" y="-345" type="curve" smooth="yes"/>
			<point x="348" y="-345"/>
			<point x="332" y="-328"/>
			<point x="332" y="-308" type="curve" smooth="yes"/>
			<point x="333" y="-280"/>
			<point x="340" y="71"/>
			<point x="340" y="88" type="curve" smooth="yes"/>
			<point x="340" y="281"/>
			<point x="401" y="344"/>
			<point x="401" y="372" type="curve" smooth="yes"/>
			<point x="401" y="421"/>
			<point x="260" y="493"/>
			<point x="176" y="493" type="curve" smooth="yes"/>
			<point x="135" y="493"/>
			<point x="104" y="436"/>
			<point x="104" y="396" type="curve" smooth="yes"/>
			<point x="104" y="321"/>
			<point x="158" y="287"/>
			<point x="226" y="240" type="curve" smooth="yes"/>
			<point x="243" y="228"/>
			<point x="254" y="196"/>
			<point x="254" y="147" type="curve" smooth="yes"/>
			<point x="254" y="124"/>
			<point x="224" y="112"/>
			<point x="179" y="112" type="curve" smooth="yes"/>
			<point x="75" y="112"/>
			<point x="38" y="212"/>
			<point x="38" y="319" type="curve" smooth="yes"/>
			<point x="38" y="465"/>
			<point x="129" y="640"/>
			<point x="244" y="640" type="curve" smooth="yes"/>
			<point x="334" y="640"/>
			<point x="492" y="566"/>
			<point x="492" y="501" type="curve" smooth="yes"/>
			<point x="492" y="439"/>
			<point x="432" y="310"/>
			<point x="432" y="196" type="curve" smooth="yes"/>
			<point x="432" y="81"/>
			<point x="476" y="-125"/>
			<point x="476" y="-223" type="curve" smooth="yes"/>
			<point x="476" y="-278"/>
			<point x="393" y="-344"/>
		</contour>
	</outline>
</glyph>
<glyph name="pe-hb" format="2">
	<advance width="580"/>
	<unicode hex="05E4"/>
	<anchor x="338" y="316" name="center"/>
	<outline>
		<contour>
			<point x="115" y="-37" type="curve" smooth="yes"/>
			<point x="84" y="-37"/>
			<point x="67" y="-29"/>
			<point x="67" y="0" type="curve" smooth="yes"/>
			<point x="67" y="106"/>
			<point x="79" y="130"/>
			<point x="111" y="130" type="curve" smooth="yes"/>
			<point x="174" y="130"/>
			<point x="347" y="142"/>
			<point x="405" y="184" type="curve" smooth="yes"/>
			<point x="462" y="225"/>
			<point x="476" y="284"/>
			<point x="475" y="351" type="curve" smooth="yes"/>
			<point x="472" y="451"/>
			<point x="389" y="461"/>
			<point x="258" y="461" type="curve" smooth="yes"/>
			<point x="210" y="461"/>
			<point x="167" y="440"/>
			<point x="167" y="391" type="curve" smooth="yes"/>
			<point x="167" y="365"/>
			<point x="216" y="345"/>
			<point x="216" y="313" type="curve" smooth="yes"/>
			<point x="216" y="289"/>
			<point x="175" y="221"/>
			<point x="130" y="221" type="curve" smooth="yes"/>
			<point x="102" y="221"/>
			<point x="58" y="269"/>
			<point x="58" y="322" type="curve" smooth="yes"/>
			<point x="58" y="361"/>
			<point x="88" y="396"/>
			<point x="116" y="428" type="curve" smooth="yes"/>
			<point x="125" y="438"/>
			<point x="131" y="446"/>
			<point x="131" y="452" type="curve" smooth="yes"/>
			<point x="131" y="457"/>
			<point x="129" y="464"/>
			<point x="118" y="467" type="curve" smooth="yes"/>
			<point x="94" y="474"/>
			<point x="64" y="509"/>
			<point x="64" y="559" type="curve" smooth="yes"/>
			<point x="64" y="586"/>
			<point x="79" y="670"/>
			<point x="84" y="676" type="curve" smooth="yes"/>
			<point x="94" y="688"/>
			<point x="114" y="694"/>
			<point x="123" y="694" type="curve" smooth="yes"/>
			<point x="131" y="694"/>
			<point x="134" y="690"/>
			<point x="136" y="678" type="curve" smooth="yes"/>
			<point x="141" y="642"/>
			<point x="180" y="631"/>
			<point x="215" y="631" type="curve" smooth="yes"/>
			<point x="273" y="631"/>
			<point x="356" y="634"/>
			<point x="413" y="615" type="curve" smooth="yes"/>
			<point x="513" y="584"/>
			<point x="531" y="428"/>
			<point x="531" y="358" type="curve" smooth="yes"/>
			<point x="531" y="126"/>
			<point x="389" y="-37"/>
		</contour>
	</outline>
</glyph>
<glyph name="tsadiFinal-hb" format="2">
	<advance width="426"/>
	<unicode hex="05E5"/>
	<outline>
		<contour>
			<point x="179" y="-341" type="curve" smooth="yes"/>
			<point x="142" y="-340"/>
			<point x="125" y="-243"/>
			<point x="125" y="-168" type="curve" smooth="yes"/>
			<point x="125" y="-58"/>
			<point x="198" y="396"/>
			<point x="198" y="449" type="curve" smooth="yes"/>
			<point x="198" y="458"/>
			<point x="195" y="465"/>
			<point x="185" y="466" type="curve" smooth="yes"/>
			<point x="118" y="470"/>
			<point x="20" y="489"/>
			<point x="20" y="596" type="curve" smooth="yes"/>
			<point x="20" y="631"/>
			<point x="37" y="692"/>
			<point x="56" y="692" type="curve" smooth="yes"/>
			<point x="66" y="692"/>
			<point x="96" y="630"/>
			<point x="216" y="630" type="curve" smooth="yes"/>
			<point x="334" y="630"/>
			<point x="365" y="694"/>
			<point x="378" y="694" type="curve" smooth="yes"/>
			<point x="384" y="694"/>
			<point x="391" y="682"/>
			<point x="391" y="627" type="curve" smooth="yes"/>
			<point x="391" y="489"/>
			<point x="286" y="479"/>
			<point x="274" y="474" type="curve" smooth="yes"/>
			<point x="264" y="470"/>
			<point x="260" y="465"/>
			<point x="259" y="458" type="curve" smooth="yes"/>
			<point x="253" y="416"/>
			<point x="244" y="321"/>
			<point x="244" y="253" type="curve" smooth="yes"/>
			<point x="244" y="52"/>
			<point x="279" y="25"/>
			<point x="279" y="-118" type="curve" smooth="yes"/>
			<point x="279" y="-187"/>
			<point x="211" y="-341"/>
		</contour>
	</outline>
</glyph>
<glyph name="qof-hb" format="2">
	<advance width="580"/>
	<unicode hex="05E7"/>
	<anchor x="311" y="290" name="center"/>
	<outline>
		<contour>
			<point x="166" y="365" type="curve" smooth="yes"/>
			<point x="166" y="376"/>
			<point x="159" y="381"/>
			<point x="148" y="381" type="curve" smooth="yes"/>
			<point x="132" y="381"/>
			<point x="102" y="351"/>
			<point x="77" y="259" type="curve" smooth="yes"/>
			<point x="66" y="219"/>
			<point x="61" y="155"/>
			<point x="61" y="-276" type="curve" smooth="yes"/>
			<point x="61" y="-327"/>
			<point x="66" y="-346"/>
			<point x="94" y="-346" type="curve" smooth="yes"/>
			<point x="146" y="-346"/>
			<point x="199" y="-290"/>
			<point x="199" y="-218" type="curve" smooth="yes"/>
			<point x="199" y="-73"/>
			<point x="153" y="88"/>
			<point x="153" y="198" type="curve" smooth="yes"/>
			<point x="153" y="305"/>
			<point x="166" y="343"/>
		</contour>
		<contour>
			<point x="112" y="686" type="curve" smooth="yes"/>
			<point x="101" y="686"/>
			<point x="85" y="680"/>
			<point x="78" y="670" type="curve" smooth="yes"/>
			<point x="72" y="662"/>
			<point x="60" y="600"/>
			<point x="60" y="540" type="curve" smooth="yes"/>
			<point x="60" y="470"/>
			<point x="98" y="455"/>
			<point x="166" y="455" type="curve" smooth="yes"/>
			<point x="222" y="455"/>
			<point x="269" y="463"/>
			<point x="319" y="463" type="curve" smooth="yes"/>
			<point x="428" y="463"/>
			<point x="473" y="409"/>
			<point x="473" y="313" type="curve" smooth="yes"/>
			<point x="473" y="221"/>
			<point x="405" y="141"/>
			<point x="366" y="118" type="curve" smooth="yes"/>
			<point x="318" y="90"/>
			<point x="303" y="78"/>
			<point x="303" y="51" type="curve" smooth="yes"/>
			<point x="303" y="36"/>
			<point x="317" y="16"/>
			<point x="342" y="16" type="curve" smooth="yes"/>
			<point x="398" y="16"/>
			<point x="452" y="62"/>
			<point x="476" y="109" type="curve" smooth="yes"/>
			<point x="512" y="180"/>
			<point x="529" y="263"/>
			<point x="529" y="343" type="curve" smooth="yes"/>
			<point x="529" y="443"/>
			<point x="516" y="632"/>
			<point x="336" y="632" type="curve" smooth="yes"/>
			<point x="301" y="632"/>
			<point x="254" y="627"/>
			<point x="221" y="627" type="curve" smooth="yes"/>
			<point x="190" y="627"/>
			<point x="140" y="630"/>
			<point x="130" y="659" type="curve" smooth="yes"/>
			<point x="124" y="677"/>
			<point x="121" y="686"/>
		</contour>
	</outline>
</glyph>
<glyph name="shin-hb" format="2">
	<advance width="580"/>
	<unicode hex="05E9"/>
	<anchor x="310" y="327" name="center"/>
	<anchor x="319" y="685" name="top"/>
	<anchor x="44" y="0" name="bottomleft"/>
	<anchor x="140" y="615" name="topleft"/>
	<anchor x="501" y="629" name="topright"/>
	<anchor x="313" y="-12" name="bottom"/>
	<outline>
		<contour>
			<point x="99" y="-89" type="curve" smooth="yes"/>
			<point x="83" y="-89"/>
			<point x="79" y="-82"/>
			<point x="79" y="-72" type="curve" smooth="yes"/>
			<point x="79" y="-13"/>
			<point x="103" y="241"/>
			<point x="103" y="454" type="curve" smooth="yes"/>
			<point x="103" y="466"/>
			<point x="97" y="474"/>
			<point x="89" y="476" type="curve" smooth="yes"/>
			<point x="71" y="480"/>
			<point x="47" y="489"/>
			<point x="47" y="505" type="curve" smooth="yes"/>
			<point x="47" y="519"/>
			<point x="113" y="685"/>
			<point x="122" y="694" type="curve" smooth="yes"/>
			<point x="128" y="700"/>
			<point x="143" y="702"/>
			<point x="159" y="702" type="curve" smooth="yes"/>
			<point x="170" y="702"/>
			<point x="171" y="678"/>
			<point x="180" y="662" type="curve" smooth="yes"/>
			<point x="191" y="641"/>
			<point x="218" y="635"/>
			<point x="328" y="635" type="curve" smooth="yes"/>
			<point x="386" y="635"/>
			<point x="450" y="640"/>
			<point x="468" y="683" type="curve" smooth="yes"/>
			<point x="473" y="695"/>
			<point x="492" y="702"/>
			<point x="509" y="702" type="curve" smooth="yes"/>
			<point x="518" y="702"/>
			<point x="522" y="695"/>
			<point x="522" y="679" type="curve" smooth="yes"/>
			<point x="522" y="593"/>
			<point x="486" y="464"/>
			<point x="352" y="464" type="curve" smooth="yes"/>
			<point x="316" y="464"/>
			<point x="250" y="474"/>
			<point x="214" y="474" type="curve" smooth="yes"/>
			<point x="179" y="474"/>
			<point x="169" y="470"/>
			<point x="169" y="455" type="curve" smooth="yes"/>
			<point x="169" y="381"/>
			<point x="162" y="210"/>
			<point x="162" y="184" type="curve" smooth="yes"/>
			<point x="162" y="169"/>
			<point x="185" y="160"/>
			<point x="300" y="160" type="curve" smooth="yes"/>
			<point x="399" y="160"/>
			<point x="452" y="210"/>
			<point x="468" y="337" type="curve" smooth="yes"/>
			<point x="469" y="347"/>
			<point x="494" y="355"/>
			<point x="509" y="355" type="curve" smooth="yes"/>
			<point x="517" y="355"/>
			<point x="522" y="349"/>
			<point x="522" y="342" type="curve" smooth="yes"/>
			<point x="522" y="183"/>
			<point x="492" y="-7"/>
			<point x="313" y="-7" type="curve" smooth="yes"/>
			<point x="290" y="-7"/>
			<point x="223" y="3"/>
			<point x="198" y="3" type="curve" smooth="yes"/>
			<point x="148" y="3"/>
			<point x="163" y="-46"/>
			<point x="136" y="-77" type="curve" smooth="yes"/>
			<point x="127" y="-88"/>
			<point x="113" y="-89"/>
		</contour>
	</outline>
</glyph>
<glyph name="tav-hb" format="2">
	<advance width="580"/>
	<unicode hex="05EA"/>
	<anchor x="316" y="330" name="center"/>
	<outline>
		<contour>
			<point x="61" y="-27" type="curve" smooth="yes"/>
			<point x="37" y="-27"/>
			<point x="34" y="1"/>
			<point x="34" y="88" type="curve" smooth="yes"/>
			<point x="34" y="106"/>
			<point x="38" y="125"/>
			<point x="74" y="143" type="curve" smooth="yes"/>
			<point x="90" y="151"/>
			<point x="97" y="157"/>
			<point x="97" y="168" type="curve" smooth="yes"/>
			<point x="94" y="256"/>
			<point x="83" y="307"/>
			<point x="83" y="325" type="curve" smooth="yes"/>
			<point x="84" y="358"/>
			<point x="95" y="391"/>
			<point x="108" y="412" type="curve" smooth="yes"/>
			<point x="128" y="444"/>
			<point x="137" y="454"/>
			<point x="137" y="462" type="curve" smooth="yes"/>
			<point x="137" y="467"/>
			<point x="131" y="472"/>
			<point x="122" y="475" type="curve" smooth="yes"/>
			<point x="99" y="483"/>
			<point x="78" y="515"/>
			<point x="78" y="545" type="curve" smooth="yes"/>
			<point x="78" y="610"/>
			<point x="92" y="671"/>
			<point x="94" y="676" type="curve" smooth="yes"/>
			<point x="98" y="685"/>
			<point x="132" y="693"/>
			<point x="139" y="693" type="curve" smooth="yes"/>
			<point x="144" y="693"/>
			<point x="147" y="688"/>
			<point x="147" y="679" type="curve" smooth="yes"/>
			<point x="147" y="643"/>
			<point x="189" y="627"/>
			<point x="235" y="627" type="curve" smooth="yes"/>
			<point x="255" y="627"/>
			<point x="301" y="630"/>
			<point x="341" y="630" type="curve" smooth="yes"/>
			<point x="496" y="630"/>
			<point x="534" y="472"/>
			<point x="534" y="347" type="curve" smooth="yes"/>
			<point x="534" y="223"/>
			<point x="471" y="23"/>
			<point x="363" y="23" type="curve" smooth="yes"/>
			<point x="327" y="23"/>
			<point x="311" y="36"/>
			<point x="311" y="80" type="curve" smooth="yes"/>
			<point x="311" y="88"/>
			<point x="317" y="102"/>
			<point x="342" y="114" type="curve" smooth="yes"/>
			<point x="464" y="174"/>
			<point x="473" y="255"/>
			<point x="473" y="330" type="curve" smooth="yes"/>
			<point x="473" y="452"/>
			<point x="395" y="457"/>
			<point x="291" y="457" type="curve" smooth="yes"/>
			<point x="269" y="457"/>
			<point x="244" y="461"/>
			<point x="230" y="461" type="curve" smooth="yes"/>
			<point x="205" y="461"/>
			<point x="158" y="392"/>
			<point x="158" y="343" type="curve" smooth="yes"/>
			<point x="158" y="280"/>
			<point x="222" y="139"/>
			<point x="221" y="82" type="curve" smooth="yes"/>
			<point x="221" y="48"/>
			<point x="211" y="14"/>
			<point x="197" y="0" type="curve" smooth="yes"/>
			<point x="181" y="-16"/>
			<point x="118" y="-27"/>
		</contour>
	</outline>
</glyph>
<glyph name="guilsinglleft" format="2">
	<advance width="250"/>
	<unicode hex="2039"/>
	<outline>
		<contour>
			<point x="219" y="70" type="line"/>
			<point x="230" y="70" type="line"/>
			<point x="101" y="274" type="line"/>
			<point x="101" y="220" type="line"/>
			<point x="230" y="424" type="line"/>
			<point x="219" y="424" type="line"/>
			<point x="20" y="247" type="line"/>
		</contour>
	</outline>
</glyph>
<glyph name="yodhiriq-hb" format="2">
	<advance width="270"/>
	<unicode hex="FB1D"/>
	<outline>
		<component base="yod-hb"/>
		<contour>
			<point x="60" y="162" type="curve" smooth="yes"/>
			<point x="80" y="162"/>
			<point x="95" y="177"/>
			<point x="95" y="197" type="curve" smooth="yes"/>
			<point x="95" y="217"/>
			<point x="80" y="232"/>
			<point x="60" y="232" type="curve" smooth="yes"/>
			<point x="40" y="232"/>
			<point x="25" y="217"/>
			<point x="25" y="197" type="curve" smooth="yes"/>
			<point x="25" y="177"/>
			<point x="40" y="162"/>
		</contour>
	</outline>
</glyph>
